<svg id="Layer_1" data-name="Layer 1" xmlns="http://www.w3.org/2000/svg" viewBox="0 0 219.67 27.42"><title>LOOPBEAUTY-logo-black</title><path d="M.78.94H6.19V22.19H19.13v4.66H.78Z" transform="translate(-0.78 -0.15)"/><path d="M42.72,24.55c-2,2-4.79,3-8.49,3s-6.54-1-8.49-3Q21.8,20.85,21.8,13.86T25.74,3.17q2.93-3,8.49-3t8.49,3q3.91,3.57,3.92,10.69T42.72,24.55Zm-3.39-3.94q1.89-2.37,1.89-6.75a10.62,10.62,0,0,0-1.89-6.74,6.16,6.16,0,0,0-5.1-2.38A6.24,6.24,0,0,0,29.1,7.11q-1.92,2.37-1.92,6.75t1.92,6.75A6.25,6.25,0,0,0,34.23,23,6.19,6.19,0,0,0,39.33,20.61Z" transform="translate(-0.78 -0.15)"/><path d="M54.72,24.55c-2,2-4.79,3-8.49,3s-6.53-1-8.49-3Q33.8,20.85,33.8,13.86T37.74,3.17q2.94-3,8.49-3t8.49,3q3.91,3.57,3.92,10.69T54.72,24.55Zm-3.38-3.94q1.89-2.37,1.89-6.75a10.62,10.62,0,0,0-1.89-6.74,6.18,6.18,0,0,0-5.11-2.38A6.25,6.25,0,0,0,41.1,7.11q-1.92,2.37-1.92,6.75t1.92,6.75a6.7,6.7,0,0,0,10.24,0Z" transform="translate(-0.78 -0.15)"/><path d="M80.17,15.64a9.94,9.94,0,0,1-6.5,1.9h-5.4v9.31H62.89V.94H74a9,9,0,0,1,6.13,2q2.3,2,2.29,6.2Q82.44,13.74,80.17,15.64ZM76,6.3a4.36,4.36,0,0,0-2.88-.86H68.27v7.63h4.88A4.12,4.12,0,0,0,76,12.14a3.79,3.79,0,0,0,1-3A3.58,3.58,0,0,0,76,6.3Z" transform="translate(-0.78 -0.15)"/><path d="M85.81,26.86V.94h9.36a14.23,14.23,0,0,1,3.89.47,7.12,7.12,0,0,1,2.64,1.33,5.07,5.07,0,0,1,1.5,2.07,7.34,7.34,0,0,1,.47,2.65,6.93,6.93,0,0,1-.36,2.36,5.25,5.25,0,0,1-.94,1.65,4.37,4.37,0,0,1-1.31,1,5.89,5.89,0,0,1-1.53.52v.07a5.84,5.84,0,0,1,4,2.12,6.94,6.94,0,0,1,1.31,4.32,8.29,8.29,0,0,1-.63,3.42,5.78,5.78,0,0,1-1.74,2.27,7,7,0,0,1-2.68,1.24,14.14,14.14,0,0,1-3.41.38Zm2.45-14.47h6.19a13.74,13.74,0,0,0,3.2-.32,5.48,5.48,0,0,0,2.09-1,3.49,3.49,0,0,0,1.14-1.55,6.16,6.16,0,0,0,.34-2.1,4.75,4.75,0,0,0-.4-2.07A3.07,3.07,0,0,0,99.56,4a6.37,6.37,0,0,0-2.25-.76A21.6,21.6,0,0,0,93.91,3H88.26Zm0,12.38h6.23A29.87,29.87,0,0,0,98,24.59a6.55,6.55,0,0,0,2.46-.73,3.52,3.52,0,0,0,1.46-1.59,6.46,6.46,0,0,0,.49-2.72,5.45,5.45,0,0,0-.54-2.61,3.75,3.75,0,0,0-1.55-1.53,7.19,7.19,0,0,0-2.41-.73,21.44,21.44,0,0,0-3.14-.2H88.26Z" transform="translate(-0.78 -0.15)"/><path d="M109.82,26.86V.94h17.25V3h-14.8v9.36h13.36v2.09H112.27V24.77h15.16v2.09Z" transform="translate(-0.78 -0.15)"/><path d="M129.44,26.86,139.63.94h2.77l9.94,25.92h-2.52l-3-8.13H135L132,26.86Zm6.41-10.22H146L140.93,3Z" transform="translate(-0.78 -0.15)"/><path d="M155.87.94h2.44V16.39c0,3.21.6,5.53,1.8,6.94s3.14,2.13,5.8,2.13a10.06,10.06,0,0,0,3.55-.56,5.42,5.42,0,0,0,2.35-1.69,7,7,0,0,0,1.3-2.83,17.92,17.92,0,0,0,.4-4V.94H176V17.11c0,3.38-.83,6-2.5,7.75s-4.18,2.69-7.54,2.69-5.9-.92-7.56-2.74-2.48-4.39-2.48-7.7Z" transform="translate(-0.78 -0.15)"/><path d="M179.48.94h18.87V3h-8.21V26.86h-2.45V3h-8.21Z" transform="translate(-0.78 -0.15)"/><path d="M209.79,13.43,217.6.94h2.85l-9.4,14.62v11.3H208.6V15.74L199.35.94h2.81Z" transform="translate(-0.78 -0.15)"/></svg>