<svg width="1067" height="319" viewBox="0 0 1067 319" fill="none" xmlns="http://www.w3.org/2000/svg">
<path d="M1065.5 159.5C1065.5 180.793 1051.06 201.381 1024.21 220.36C997.399 239.31 958.506 256.438 910.312 270.846C813.942 299.658 680.718 317.5 533.5 317.5C386.282 317.5 253.058 299.658 156.688 270.846C108.494 256.438 69.6012 239.31 42.7909 220.36C15.9408 201.381 1.5 180.793 1.5 159.5C1.5 138.207 15.9408 117.619 42.7909 98.6403C69.6012 79.6897 108.494 62.5623 156.688 48.1536C253.058 19.342 386.282 1.5 533.5 1.5C680.718 1.5 813.942 19.342 910.312 48.1536C958.506 62.5623 997.399 79.6897 1024.21 98.6403C1051.06 117.619 1065.5 138.207 1065.5 159.5Z" stroke="#000000" stroke-width="3"/>
</svg>
